HIERARCHY
ROOT Hips
{
	OFFSET 0.000000 0.000000 0.000000
	CHANNELS 6 Xposition Yposition Zposition Zrotation Yrotation Xrotation 
	JOINT LHipJoint
	{
		OFFSET 0.000000 0.000000 0.000000
		CHANNELS 3 Zrotation Yrotation Xrotation
		JOINT LeftUpLeg
		{
			OFFSET 8.178360 -10.767780 5.035740
			CHANNELS 3 Zrotation Yrotation Xrotation
			JOINT LeftLeg
			{
				OFFSET 14.688660 -40.356780 0.000000
				CHANNELS 3 Zrotation Yrotation Xrotation
				JOINT LeftFoot
				{
					OFFSET 15.373200 -42.237540 0.000000
					CHANNELS 3 Zrotation Yrotation Xrotation
					JOINT LeftToeBase
					{
						OFFSET 0.945840 -2.598660 13.935300
						CHANNELS 3 Zrotation Yrotation Xrotation
						End Site
						{
							OFFSET 0.000000 0.000000 0.000000
						}
					}
				}
			}
		}
	}
	JOINT RHipJoint
	{
		OFFSET 0.000000 0.000000 0.000000
		CHANNELS 3 Zrotation Yrotation Xrotation
		JOINT RightUpLeg
		{
			OFFSET -7.833120 -10.767780 5.035740
			CHANNELS 3 Zrotation Yrotation Xrotation
			JOINT RightLeg
			{
				OFFSET -15.255180 -41.913300 0.000000
				CHANNELS 3 Zrotation Yrotation Xrotation
				JOINT RightFoot
				{
					OFFSET -15.409560 -42.337380 0.000000
					CHANNELS 3 Zrotation Yrotation Xrotation
					JOINT RightToeBase
					{
						OFFSET -0.988380 -2.715540 14.178900
						CHANNELS 3 Zrotation Yrotation Xrotation
						End Site
						{
							OFFSET 0.000000 0.000000 0.000000
						}
					}
				}
			}
		}
	}
	JOINT LowerBack
	{
		OFFSET 0.000000 0.000000 0.000000
		CHANNELS 3 Zrotation Yrotation Xrotation
		JOINT Spine
		{
			OFFSET 0.169620 12.213540 -1.160280
			CHANNELS 3 Zrotation Yrotation Xrotation
			JOINT Spine1
			{
				OFFSET 0.340320 12.293100 -0.256500
				CHANNELS 3 Zrotation Yrotation Xrotation
				JOINT Neck
				{
					OFFSET 0.000000 0.000000 0.000000
					CHANNELS 3 Zrotation Yrotation Xrotation
					JOINT Neck1
					{
						OFFSET -0.325020 10.477440 1.032120
						CHANNELS 3 Zrotation Yrotation Xrotation
						JOINT Head
						{
							OFFSET 0.624420 10.568160 -0.743820
							CHANNELS 3 Zrotation Yrotation Xrotation
							End Site
							{
								OFFSET 0.000000 0.000000 0.000000
							}
						}
					}
				}
				JOINT LeftShoulder
				{
					OFFSET 0.000000 0.000000 0.000000
					CHANNELS 3 Zrotation Yrotation Xrotation
					JOINT LeftArm
					{
						OFFSET 20.174460 7.205340 -1.867260
						CHANNELS 3 Zrotation Yrotation Xrotation
						JOINT LeftForeArm
						{
							OFFSET 29.898000 -0.000000 -0.000000
							CHANNELS 3 Zrotation Yrotation Xrotation
							JOINT LeftHand
							{
								OFFSET 20.901360 -0.000000 -0.000000
								CHANNELS 3 Zrotation Yrotation Xrotation
								JOINT LeftFingerBase
								{
									OFFSET 0.000000 0.000000 0.000000
									CHANNELS 3 Zrotation Yrotation Xrotation
									JOINT LeftHandIndex1
									{
										OFFSET 4.291560 -0.000000 -0.000000
										CHANNELS 3 Zrotation Yrotation Xrotation
										End Site
										{
											OFFSET 0.000000 0.000000 0.000000
										}
									}
								}
								JOINT LThumb
								{
									OFFSET 0.000000 0.000000 0.000000
									CHANNELS 3 Zrotation Yrotation Xrotation
									End Site
									{
										OFFSET 0.000000 0.000000 0.000000
									}
								}
							}
						}
					}
				}
				JOINT RightShoulder
				{
					OFFSET 0.000000 0.000000 0.000000
					CHANNELS 3 Zrotation Yrotation Xrotation
					JOINT RightArm
					{
						OFFSET -18.819600 8.244300 -2.427900
						CHANNELS 3 Zrotation Yrotation Xrotation
						JOINT RightForeArm
						{
							OFFSET -31.451400 -0.000000 -0.000000
							CHANNELS 3 Zrotation Yrotation Xrotation
							JOINT RightHand
							{
								OFFSET -20.665020 -0.000000 -0.000000
								CHANNELS 3 Zrotation Yrotation Xrotation
								JOINT RightFingerBase
								{
									OFFSET 0.000000 0.000000 0.000000
									CHANNELS 3 Zrotation Yrotation Xrotation
									JOINT RightHandIndex1
									{
										OFFSET -3.735180 -0.000000 -0.000000
										CHANNELS 3 Zrotation Yrotation Xrotation
										End Site
										{
											OFFSET 0.000000 0.000000 0.000000
										}
									}
								}
								JOINT RThumb
								{
									OFFSET 0.000000 0.000000 0.000000
									CHANNELS 3 Zrotation Yrotation Xrotation
									End Site
									{
										OFFSET 0.000000 0.000000 0.000000
									}
								}
							}
						}
					}
				}
			}
		}
	}
}
MOTION
Frames:	9
Frame Time:	0.0333333
65.421378 106.568634 -63.411318 -1.111409 -47.516649 0.589305 -4.948801 1.062748 2.915714 -9.421119 -5.944789 -10.277998 1.531200 10.941932 32.358810 0.704201 -0.601034 -5.756400 1.040500 -6.487400 -18.205200 2.677333 -0.684073 1.633572 22.169012 0.924731 -8.815914 -2.553435 -11.233428 33.905046 0.080747 -3.490297 -10.006206 -0.110100 -2.139200 5.890500 0.900493 0.101742 8.303623 1.247010 0.385407 -0.136255 -0.231714 0.011294 -3.319163 -11.986022 -5.374761 -15.890651 5.321173 -4.943499 14.925811 4.222100 -3.047800 12.883000 -7.021292 -1.520117 -1.562394 -79.059039 -1.936506 29.237984 13.428655 -19.374147 -3.002148 -1.842910 -2.563956 5.356956 18.768304 19.883637 8.106200 -7.125000 0.000000 0.000000 -8.997900 53.641100 -1.924000 5.491432 2.039942 -1.246105 82.644461 -1.863517 20.303779 -14.299983 21.887518 -3.244163 0.382542 -0.266399 8.680783 -13.086479 9.136341 -2.230100 7.125000 0.000000 0.000000 9.611400 -20.448700 5.727800 
65.019852 106.622418 -63.701610 -2.087175 -47.785431 1.125078 -4.701701 0.956465 2.592465 -8.837163 -6.803155 -11.409456 2.380850 11.988749 35.856076 0.476974 -0.051027 -4.774352 0.969300 -6.268200 -17.564500 2.702989 -0.679117 1.722877 23.151314 0.767305 -8.184902 -2.355788 -10.907866 32.937041 0.099620 -3.438055 -9.487804 -0.110900 -2.147100 5.912300 1.638114 0.490833 8.766653 1.291595 0.989165 -0.105638 -0.591825 0.320669 -3.477948 -11.944117 -5.086104 -15.659462 5.244750 -4.690721 16.249024 4.261400 -3.017000 13.447300 -6.982108 -1.516541 -1.591190 -79.364639 -1.680900 25.613764 13.756648 -19.815761 -3.130284 -1.813458 -2.528306 5.794519 18.615992 19.615385 7.925500 -7.125000 0.000000 0.000000 -9.089700 53.309500 -1.869900 5.512424 2.018155 -1.259057 82.518395 -2.088102 19.661675 -14.067455 21.579384 -3.146503 0.379687 -0.272112 8.853522 -12.998496 9.101961 -2.208000 7.125000 0.000000 0.000000 9.676100 -20.482600 5.760100 
64.641552 106.707978 -64.014516 -3.185142 -47.898370 1.696517 -4.335791 0.783602 2.177908 -8.070853 -6.898062 -13.512862 3.589215 13.260925 40.360910 0.434207 -0.499480 -2.574623 1.133500 -6.761800 -19.011600 2.716459 -0.656805 1.825025 24.269981 0.448767 -7.483483 -2.140032 -10.526581 31.832431 0.152096 -3.500165 -8.960572 -0.102200 -2.061600 5.675900 2.464768 0.717127 9.464235 1.379074 1.400614 -0.052567 -0.867292 0.533897 -3.720833 -11.969510 -4.681413 -14.876762 5.308054 -4.243366 16.456388 4.383700 -2.853700 13.293200 -6.951548 -1.491989 -1.601417 -79.561880 -1.358895 23.045711 14.007474 -20.177154 -3.231198 -1.878597 -2.638773 4.203484 19.820729 20.207418 8.724000 -7.125000 0.000000 0.000000 -7.970800 54.228600 -1.816600 5.560519 2.018750 -1.229340 82.246420 -1.950852 18.254847 -13.493398 20.776042 -2.903792 0.378050 -0.287642 9.531890 -12.932660 8.941002 -2.162200 7.125000 0.000000 0.000000 9.726200 -20.637200 5.756300 
64.156914 106.808202 -64.235142 -1.984378 -48.240309 0.374072 -4.070593 0.579644 1.763819 -8.749441 -6.976360 -15.593274 4.882769 14.452199 45.016204 0.513212 -1.841687 0.788703 0.509900 -4.577000 -12.705900 2.730489 -0.657971 1.948822 23.636745 0.269254 -6.733155 -2.031749 -10.313709 31.236859 0.118719 -3.347533 -8.758213 -0.130100 -2.325300 6.405600 1.574092 1.199672 10.122733 1.230924 1.911977 0.175020 -0.786096 0.814902 -3.515558 -12.169261 -4.782498 -14.755579 5.673714 -4.390939 16.755852 4.585100 -2.906000 13.436900 -6.964926 -1.413954 -1.611841 -79.676649 -1.005182 21.264823 14.295809 -20.614420 -3.361312 -1.924458 -2.644310 3.545828 20.720237 20.074202 9.100000 -7.125000 0.000000 0.000000 -6.907200 54.263000 -1.578100 5.578661 2.039457 -1.161955 82.249007 -1.298016 15.787035 -12.878076 19.880370 -2.647011 0.388908 -0.317172 10.756528 -13.203338 8.812526 -2.184700 7.125000 0.000000 0.000000 9.522200 -20.735700 5.610700 
63.728502 106.956102 -64.343316 -3.083561 -48.696195 0.964938 -3.709724 0.403601 1.337567 -7.908202 -7.328666 -17.929291 6.169202 15.489819 49.271333 0.435394 -2.165767 4.002750 0.319200 -3.631700 -10.042800 2.739206 -0.652557 2.060971 24.610117 0.043255 -5.730637 -1.776935 -9.849392 29.877577 0.073952 -3.064104 -8.134794 -0.164200 -2.610700 7.196800 2.572504 1.549671 10.792469 1.311296 2.503878 0.305608 -1.250505 1.131478 -3.446878 -11.681554 -4.729718 -15.342020 4.873150 -4.385669 17.467508 4.120000 -2.967200 13.899500 -6.926481 -1.425583 -1.634271 -79.683230 -0.426659 20.964095 14.333610 -20.705789 -3.379253 -2.024782 -2.626463 4.230119 21.556145 20.273704 9.580100 -7.125000 0.000000 0.000000 -6.039200 54.652100 -1.435900 5.636385 1.961217 -1.188093 81.897086 -1.227029 15.285210 -12.699821 19.636412 -2.576503 0.400567 -0.302966 10.418669 -13.216265 8.481904 -2.105600 7.125000 0.000000 0.000000 9.520500 -21.083500 5.533900 
63.308646 106.982382 -64.238808 -4.042008 -49.213451 1.723248 -3.443858 0.225250 0.991701 -7.087817 -7.556161 -20.148699 6.874653 16.038510 51.551155 0.737092 -4.124739 3.796458 0.327600 -3.678800 -10.174800 2.755621 -0.618971 2.142392 25.263181 -0.144851 -5.180955 -1.628704 -9.542862 29.023504 -0.172320 -2.133437 -7.787531 -0.270900 -3.348100 9.249500 3.705286 1.880312 11.258827 1.319353 3.096711 0.377245 -1.924675 1.443556 -3.458012 -11.686934 -4.747600 -15.136491 4.932051 -4.436809 17.379867 4.167900 -2.985400 13.814200 -6.912523 -1.352998 -1.649663 -79.477731 0.207261 21.445417 14.428040 -20.883360 -3.433156 -2.004001 -2.680750 3.830032 21.602671 20.571186 9.729500 -7.125000 0.000000 0.000000 -6.115300 55.012800 -1.507800 5.624187 1.952529 -1.177500 81.555712 -1.421780 15.556012 -12.748894 19.751903 -2.602268 0.417673 -0.291128 10.014239 -13.420994 8.310967 -2.095800 7.125000 0.000000 0.000000 9.371300 -21.259500 5.407000 
62.777556 107.078940 -63.963180 -4.378404 -50.267168 2.056511 -3.345136 0.079753 0.794624 -6.839043 -6.939097 -21.779109 6.731985 15.997647 51.094658 1.031664 -5.760269 3.363222 0.154900 -2.535900 -6.989300 2.780897 -0.613883 2.223148 25.342071 -0.417831 -4.469539 -1.463424 -9.214718 28.069817 -0.352633 -1.400304 -7.265869 -0.200300 -2.881500 7.949100 4.263483 2.335101 11.677984 1.294912 3.775066 0.412780 -2.411567 1.800757 -3.545065 -11.492147 -4.587371 -15.127630 4.810335 -4.281035 17.581023 4.110100 -2.925400 13.888200 -6.916529 -1.300856 -1.667371 -79.469462 0.943786 20.035221 14.289880 -20.724087 -3.368943 -1.816751 -2.680017 3.977298 19.749030 20.238719 8.694400 -7.125000 0.000000 0.000000 -8.124700 54.276600 -1.861500 5.641377 1.915881 -1.188914 81.123863 -1.601468 15.839555 -12.699269 19.724183 -2.592325 0.406964 -0.303054 10.329739 -13.321208 8.478317 -2.122300 7.125000 0.000000 0.000000 9.441200 -21.083000 5.486700 
62.110188 107.130888 -63.631938 -4.612980 -50.750627 2.529170 -3.315743 -0.093823 0.604539 -6.652596 -5.907772 -23.547766 6.022378 15.562709 48.727365 1.080073 -5.439014 2.852902 0.400400 -4.062500 -11.252700 2.822537 -0.590903 2.296998 25.475605 -0.631477 -4.024315 -1.317965 -8.919247 27.219009 -0.533914 -0.730038 -7.147136 -0.310100 -3.580200 9.898600 4.612187 2.602850 11.807274 1.301372 4.168893 0.411191 -2.666358 2.018026 -3.589096 -11.499702 -4.491027 -15.065468 4.820681 -4.149888 17.644595 4.141800 -2.875800 13.892800 -6.946800 -1.205695 -1.695377 -79.809232 2.007634 18.430793 13.934111 -20.267692 -3.192403 -1.865620 -2.656560 5.202766 19.667919 20.372702 8.706900 -7.125000 0.000000 0.000000 -8.275600 54.413100 -1.924100 5.660563 1.873763 -1.193848 80.798064 -1.573407 15.777899 -12.653527 19.671938 -2.576555 0.408503 -0.298932 10.408318 -13.322731 8.353499 -2.091300 7.125000 0.000000 0.000000 9.444400 -21.214300 5.460100 
61.353588 107.309958 -63.263418 -4.413777 -50.841213 2.896855 -3.479490 -0.268465 0.438533 -6.811316 -5.903206 -24.653137 4.828308 14.685857 44.690421 0.740472 -2.938194 2.698323 0.827200 -5.802500 -16.212500 2.905984 -0.576583 2.387931 25.287717 -0.701133 -3.647828 -1.154698 -8.609837 26.298789 -0.598039 -0.555820 -7.401092 -0.487100 -4.475000 12.417100 4.681693 2.692599 11.715341 1.238201 4.272183 0.391952 -2.919647 2.105247 -3.518737 -11.167829 -4.334685 -15.316999 4.522673 -3.996225 17.851808 3.955300 -2.814400 14.018300 -7.001527 -1.150998 -1.707894 -79.933800 2.847846 16.913830 13.301334 -19.409047 -2.894240 -1.883299 -2.596475 5.124053 19.586646 19.677069 8.417600 -7.125000 0.000000 0.000000 -8.047500 53.623900 -1.715200 5.684300 1.811473 -1.216769 80.777017 -1.298133 15.245268 -12.690747 19.726980 -2.592641 0.398176 -0.300100 10.518221 -13.187444 8.392587 -2.078500 7.125000 0.000000 0.000000 9.546700 -21.178400 5.528800 
